<mxfile host="app.diagrams.net" modified="2020-12-11T16:59:08.214Z" agent="5.0 (Macintosh; Intel Mac OS X 11_0_1) AppleWebKit/537.36 (KHTML, like Gecko) Chrome/87.0.4280.88 Safari/537.36" etag="ERE-f7VIHsUrdkEDpLG_" version="14.0.1" type="github">
  <diagram id="NGKGOdDksnhxz-MrQr2n" name="Page-1">
    <mxGraphModel dx="743" dy="410" grid="1" gridSize="10" guides="1" tooltips="1" connect="1" arrows="1" fold="1" page="1" pageScale="1" pageWidth="827" pageHeight="1169" math="0" shadow="0">
      <root>
        <mxCell id="0" />
        <mxCell id="1" parent="0" />
        <mxCell id="uWB-mNuM6dsUgzUUD5Gx-1" value="" style="verticalLabelPosition=bottom;verticalAlign=top;html=1;shape=mxgraph.basic.smiley" vertex="1" parent="1">
          <mxGeometry x="140" y="70" width="100" height="100" as="geometry" />
        </mxCell>
        <mxCell id="uWB-mNuM6dsUgzUUD5Gx-2" value="hello world" style="whiteSpace=wrap;html=1;shape=mxgraph.basic.oval_callout" vertex="1" parent="1">
          <mxGeometry x="260" y="40" width="100" height="60" as="geometry" />
        </mxCell>
      </root>
    </mxGraphModel>
  </diagram>
</mxfile>
